# xmcd CD database file
#
# Track frame offsets:
#	150
#	16321
#	33835
#	50766
#	70019
#	88436
#	107001
#	125916
#	150661
#	167819
#	184445
#	207354
#	221791
#	240702
#	260131
#	276716
#
# Disc length: 3927 seconds
#
# Revision: 0
# Processed by: cddbd v1.5.1PL0 Copyright (c) Steve Scherf et al.
# Submitted via: CDex 1.51
#
DISCID=010f5510
DTITLE=Kai Winding  - Lazy Moments
DYEAR=1900
DGENRE=Jazz
TTITLE0=at the moment
TTITLE1=black orpheus
TTITLE2=don´t scuffle, just shuffle
TTITLE3=if you could see me now
TTITLE4=surrey with fridge on the top
TTITLE5=never let me go
TTITLE6=epistrophy
TTITLE7=it might be as well as spring
TTITLE8=crazy she calls me
TTITLE9=the boy next door
TTITLE10=that´s him
TTITLE11=mono bone
TTITLE12=yardbird suite
TTITLE13=lonely town
TTITLE14=lazy moments
TTITLE15=didn´t care
EXTD=
EXTT0=
EXTT1=
EXTT2=
EXTT3=
EXTT4=
EXTT5=
EXTT6=
EXTT7=
EXTT8=
EXTT9=
EXTT10=
EXTT11=
EXTT12=
EXTT13=
EXTT14=
EXTT15=
PLAYORDER=
